<?xml version="1.0" encoding="utf-8"?>
<!-- Generator: Adobe Illustrator 21.0.0, SVG Export Plug-In . SVG Version: 6.00 Build 0)  -->
<svg version="1.1" id="Слой_1" xmlns="http://www.w3.org/2000/svg" xmlns:xlink="http://www.w3.org/1999/xlink" x="0px" y="0px"
	 viewBox="0 0 361.8 352.7" style="enable-background:new 0 0 361.8 352.7;" xml:space="preserve">
<path d="M280.7,352.7c0.3-11.6,8.3-21,19.2-22.4c11.2-1.4,21.6,5.2,24.7,15.8c0.6,2.1,0.5,4.4,0.7,6.5
	C310.4,352.7,295.6,352.7,280.7,352.7z"/>
<path d="M38.6,352.7c0.3-9.3,4.4-16.4,12.9-20.4c8-3.8,15.9-2.9,23,2.3c5.5,4,8.3,9.6,8.9,16.4c0,0.5-0.2,1.1-0.3,1.7
	C68.3,352.7,53.4,352.7,38.6,352.7z"/>
<path d="M205.5,352.7c-0.1-12.1,9.2-22,21.2-22.5c12.1-0.5,22.5,8.5,23.3,20.4c0.1,0.7,0,1.4,0,2.1
	C235.2,352.7,220.3,352.7,205.5,352.7z"/>
<path d="M93.1,352.7c-0.1-12.1,9.2-22,21.2-22.5c12.1-0.5,22.5,8.5,23.3,20.4c0,0.7,0,1.4,0,2.1C122.7,352.7,107.9,352.7,93.1,352.7
	z"/>
<path d="M88.1,309.8c-23,0-46,0-68.9,0c-3.9,0-6.1-1.7-6.3-5c-0.1-1,0.2-2,0.5-3c13.2-45.6,26.3-91.2,39.5-136.8
	c1.1-3.7,2.6-4.9,6.3-4.9c19.2,0,38.5,0,57.7,0c3.6,0,5.3,1.3,6.3,4.7c13.3,45.8,26.6,91.6,39.8,137.3c1.3,4.5-1,7.5-5.7,7.5
	C134.2,309.8,111.2,309.8,88.1,309.8L88.1,309.8z M82.6,228.4c0,2.9,2.4,5.3,5.4,5.3c2.9,0,5.5-2.4,5.5-5.2c0-2.9-2.4-5.2-5.4-5.2
	C84.9,223.2,82.6,225.4,82.6,228.4z M88.1,191.5c3,0,5.4-2.5,5.4-5.3c-0.1-2.9-2.6-5.2-5.5-5.2c-3,0-5.3,2.4-5.3,5.3
	C82.6,189.2,85,191.5,88.1,191.5z M87.9,212.6c3,0,5.5-2.3,5.5-5.2c0.1-2.8-2.4-5.3-5.4-5.3s-5.4,2.2-5.5,5.1
	C82.5,210.2,84.9,212.6,87.9,212.6z"/>
<path d="M264.9,160.3c22.5,0,45,0,67.4,0c5.7,0,7.7,2.7,6.2,8.2c-13,45.3-26,90.7-39,136c-1.2,4.2-2.6,5.3-7.1,5.3
	c-18.6,0-37.2,0-55.8,0c-4.4,0-5.7-1-6.9-5.2c-12.9-45.3-25.9-90.6-38.8-135.9c-0.2-0.6-0.3-1.1-0.5-1.7c-0.8-3.7,1.4-6.6,5.2-6.8
	c2.8-0.1,5.6,0,8.4,0C224.4,160.3,244.7,160.3,264.9,160.3L264.9,160.3z M199.3,166.6c0,0.2,0,0.3,0,0.5c0.2,0.1,0.3,0.3,0.5,0.4
	c16.3,7.3,32.5,14.6,48.8,22c1.2,0.6,1.8,0.1,2.5-0.7c4.2-5.3,8.5-10.6,12.7-15.8c0.3-0.3,0.5-0.8,0.8-1.3
	C242.6,169.8,221,168.2,199.3,166.6z M264.8,171.5c4.7,5.9,9.1,11.3,13.4,16.8c1.1,1.4,1.9,1.6,3.5,0.9
	c15.6-7.1,31.2-14.1,46.8-21.1c0.7-0.3,1.3-0.7,2-1c0-0.1-0.1-0.3-0.1-0.4C308.6,168.2,287,169.8,264.8,171.5z M264.9,190.1
	c-3-0.1-5.4,2.2-5.5,5.2c0,2.9,2.2,5.2,5.1,5.3c3,0.1,5.5-2.1,5.6-5C270.2,192.5,267.9,190.1,264.9,190.1z M270.1,216.2
	c0-2.9-2.3-5.2-5.2-5.2c-3-0.1-5.4,2.3-5.4,5.3s2.4,5.2,5.5,5.2C267.9,221.4,270.1,219.1,270.1,216.2z"/>
<path d="M26.4,63.4c-12.2-7.7-17.7-20-22.8-32.6c-2.4-5.9-4.2-12-4.5-18.4c-0.1-1.9,0-3.8,0.3-5.6C0.2,2.7,3.5,0.1,7.5,0
	s7.2,2.3,8.3,6.5c0.2,0.7,0.3,1.4,0.6,2.4c0.8-0.7,1.5-1.2,2.1-1.7c3.2-2.4,7-2.5,10.2-0.2c3,2.2,4.1,6.1,2.9,9.7
	c-1.3,3.6-3.7,6.4-6.8,8.5c-4,2.7-8.2,5.1-12.3,7.5c-0.9,0.6-1.9,1-3.1,1.7c5.8,8.2,11.9,15.8,21.4,20.1C42.3,36,58.7,25,80.5,23
	c15.5-1.5,29.8,2.6,42.6,11.7c25.9,18.6,34,53.7,18.8,81.7c-15.3,28.2-48.9,40.5-78.8,29.1C33.8,134.3,13.3,100,26.4,63.4z
	 M35.5,69.2c-7.9,21.4-0.1,50.6,25.7,64.2c24.8,13.1,55.6,4.5,70.3-19.5c14.5-23.8,7.5-53-10.8-67.9c-10,12.7-21.9,22.9-38.2,26.5
	C66.6,76,50.9,75.4,35.5,69.2z"/>
<path d="M329.8,85.3c-0.1,35.6-28.8,64.2-64.4,64.3c-35.6,0-64.3-28.8-64.2-64.6c0.1-35.5,28.9-64.1,64.5-64
	C301.2,21.1,329.8,49.9,329.8,85.3z M268.8,62.2c-0.1,0.2-0.3,0.5-0.4,0.7c-2.5-1.5-5.4-2.7-7.5-4.7c-4.3-4-8.2-8.4-12.1-12.8
	c-1-1.2-1.9-1.6-3.2-0.9c-4.3,2.2-8.6,4.3-12.8,6.6c-4.5,2.5-9,5.1-13.5,7.7c-0.7,0.4-1.3,1.1-1.7,1.8c-5.4,10.4-7.2,21.4-5.4,32.9
	c4.7,29.6,31.3,49.2,60.9,45.3c32.3-4.3,53.6-37.2,44.3-68.7c-1-3.4-2.4-5.4-6.1-6.7c-9.6-3.3-17.8-9.3-25.4-16.1
	c-0.5-0.4-1-0.9-1.5-1.3c-0.3,1.3-0.2,2.3,0.1,3.2c2.5,7.8,8.4,13.1,13.2,19.3c-14.8-5.1-26.1-14.7-35.2-27.9
	C262.7,48.7,263.9,56,268.8,62.2z"/>
<path d="M166.4,225c1.1-2.1,1.9-3.7,2.7-5.3c5.9-11.6,11.9-23.2,17.8-34.8c0.3-0.5,0.5-1.1,0.8-1.5c0.4-0.5,1-0.9,1.5-1.3
	c0.3,0.5,0.8,1,1,1.5c1.1,3.4,2.1,6.9,3.1,10.3c3.1,11.1,3.4,6.9-1.6,16.9c-5.6,11.2-11.3,22.3-17,33.5c-0.7,1.4-1,2.7-0.3,4.2
	c1.7,3.8,1.9,7.6,0.3,11.5c-2.5,6.2-8.8,7.7-13.8,3.3c-5.5-4.8-6.4-13.2-2-18.9c0.4-0.5,0.5-1.6,0.3-2.3c-7.6-22-15.2-44-22.7-66.1
	c-0.5-1.4-0.9-2.9-0.8-4.4c0.2-2.9,2.5-5,5.4-5.4c2.7-0.4,5.4,1.3,6.4,4.1c2.2,6.2,4.3,12.5,6.5,18.7
	C158.1,201,162.1,212.8,166.4,225z"/>
<path d="M320.9,263.8c0.7-1.6,1.2-3.4,2.1-4.8c6.4-10,12.9-19.9,19.4-29.8c1.6-2.4,1.9-4.6,0.8-7.3c-2.5-6.3-4.8-12.6-7.1-19
	c-0.4-1.1-0.5-2.6-0.2-3.7c1.3-5.1,2.7-10.1,4.3-15.1c0.3-1,1.3-1.7,1.9-2.6c0.7,0.8,1.8,1.4,2.2,2.3c5.7,13.7,11.2,27.4,16.9,41.1
	c1,2.5,0.7,4.8-0.7,7c-8,12.2-16.1,24.4-24.1,36.6c-2.2,3.3-5.8,4.6-9.4,3.4C323.5,270.7,321.3,267.5,320.9,263.8z"/>
<path d="M0.3,254.6c0.3-1.4,0.4-2.8,0.9-4.2c9-26.2,18.1-52.5,27.2-78.7c1.3-3.8,4-5.8,7.1-5.2c4.1,0.7,6.2,4.5,4.7,8.7
	c-3.5,10.1-7,20.2-10.5,30.4c-4.2,12-8.3,24.1-12.5,36.1c-0.5,1.3-0.5,2.2,0.5,3.4c4.9,6.1,2,17.2-5.3,20.2
	c-3.8,1.6-7.8,0.5-9.7-3.1c-1.2-2.3-1.8-4.9-2.7-7.4C0.1,254.8,0.2,254.7,0.3,254.6z"/>
</svg>
